<?xml version="1.0" standalone="no"?>
<!DOCTYPE svg PUBLIC "-//W3C//DTD SVG 20010904//EN"
 "http://www.w3.org/TR/2001/REC-SVG-20010904/DTD/svg10.dtd">
<svg version="1.0" xmlns="http://www.w3.org/2000/svg"
 width="200.000000pt" height="200.000000pt" viewBox="0 0 200.000000 200.000000"
 preserveAspectRatio="xMidYMid meet">

<g transform="translate(0.000000,200.000000) scale(0.100000,-0.100000)"
fill="#14ffec" >
<path d="M440 1770 l0 -100 -110 0 -110 0 0 -715 0 -715 710 0 709 0 3 98 3
97 113 3 112 3 0 714 0 715 -715 0 -715 0 0 -100z m1380 -620 l0 -661 -87 3
-88 3 -3 588 -2 587 -575 0 -575 0 0 70 0 70 665 0 665 0 0 -660z m-1380 -120
l0 -590 575 0 575 0 0 -75 0 -75 -660 0 -660 0 0 665 0 665 85 0 85 0 0 -590z
m1150 25 l0 -565 -547 2 -548 3 -3 550 c-1 303 0 556 3 563 3 9 123 12 550 12
l545 0 0 -565z"/>
<path d="M760 1239 c-105 -47 -164 -155 -112 -202 31 -29 42 -21 42 31 0 27 8
62 18 81 19 35 62 72 62 53 0 -6 -18 -102 -40 -214 -22 -111 -40 -211 -40
-221 0 -15 7 -18 42 -15 l43 3 24 128 23 127 44 0 c52 0 51 5 24 -125 -28
-138 -29 -137 22 -133 l41 3 49 245 c26 135 48 248 48 253 0 4 -20 7 -44 7
l-43 0 -19 -97 -19 -98 -47 -3 -46 -3 13 63 c30 147 30 138 -7 138 -18 0 -53
-10 -78 -21z"/>
<path d="M1204 1246 c-43 -19 -74 -62 -74 -103 0 -41 6 -54 71 -139 48 -63 50
-69 47 -122 -3 -46 -7 -58 -30 -75 -23 -17 -31 -19 -53 -9 -54 25 -54 104 0
118 30 7 33 29 5 44 -67 36 -143 -69 -111 -152 24 -64 126 -87 207 -47 57 27
86 74 86 142 1 63 -14 93 -81 170 -55 63 -67 110 -35 141 29 30 84 9 84 -32 0
-10 -7 -27 -15 -38 -16 -24 -11 -34 16 -34 43 0 64 80 31 120 -23 28 -102 37
-148 16z"/>
</g>
</svg>
